<?xml version="1.0" encoding="UTF-8"?>
<svg xmlns="http://www.w3.org/2000/svg" xmlns:xlink="http://www.w3.org/1999/xlink" width="28px" height="20px" viewBox="0 0 28 20" version="1.1">
<g id="surface1">
<path style=" stroke:none;fill-rule:nonzero;fill:rgb(94.117647%,94.117647%,94.117647%);fill-opacity:1;" d="M 0 3.332031 L 28 3.332031 L 28 16.667969 L 0 16.667969 Z M 0 3.332031 "/>
<path style=" stroke:none;fill-rule:nonzero;fill:rgb(100%,59.607843%,6.666667%);fill-opacity:1;" d="M 0 3.332031 L 28 3.332031 L 28 7.777344 L 0 7.777344 Z M 0 3.332031 "/>
<path style=" stroke:none;fill-rule:nonzero;fill:rgb(42.745098%,64.705882%,26.666667%);fill-opacity:1;" d="M 0 12.222656 L 28 12.222656 L 28 16.667969 L 0 16.667969 Z M 0 12.222656 "/>
<path style=" stroke:none;fill-rule:nonzero;fill:rgb(0%,32.156863%,70.588235%);fill-opacity:1;" d="M 16.402344 10 C 16.402344 10.945312 15.324219 11.714844 14 11.714844 C 12.675781 11.714844 11.597656 10.945312 11.597656 10 C 11.597656 9.054688 12.675781 8.285156 14 8.285156 C 15.324219 8.285156 16.402344 9.054688 16.402344 10 Z M 16.402344 10 "/>
<path style=" stroke:none;fill-rule:nonzero;fill:rgb(94.117647%,94.117647%,94.117647%);fill-opacity:1;" d="M 15.5 10 C 15.5 10.59375 14.828125 11.070312 14 11.070312 C 13.171875 11.070312 12.5 10.59375 12.5 10 C 12.5 9.40625 13.171875 8.929688 14 8.929688 C 14.828125 8.929688 15.5 9.40625 15.5 10 Z M 15.5 10 "/>
<path style=" stroke:none;fill-rule:nonzero;fill:rgb(0%,32.156863%,70.588235%);fill-opacity:1;" d="M 14 8.675781 L 14.460938 9.425781 L 15.601562 9.339844 L 14.925781 10 L 15.601562 10.660156 L 14.460938 10.574219 L 14 11.324219 L 13.539062 10.574219 L 12.398438 10.660156 L 13.074219 10 L 12.398438 9.339844 L 13.539062 9.425781 Z M 14 8.675781 "/>
</g>
</svg>
